PathFileType	4	(X/Y/Z)	C:\Users\Basilio\Documents\Thesis Gigler\squatting_fais\c3dfiles\073\SLS_back_pre1\markers_experimental.trc
DataRate	CameraRate	NumFrames	NumMarkers	Units	OrigDataRate	OrigDataStartFrame	OrigNumFrames
200.000000	200.000000	4	61	mm	200.000000	158	1271
Frame#	Time	FHD			LBHD			RBHD			C7			T10			CLAV			LSHO			LUUPA			LMUPA			LDUPA			LLEP			LMEP			LRAD			LUL			LRFIN			RSHO			RUPA1			RMUPA			RDUPA			RLEP			RMEP			RRAD			RUL			RUFIN			LASI			RASI			USACR			LSACR			RSACR			LTHI1			LTHI2			LTHI3			LTHI4			LLFC			LTIB1			LTIB2			LTIB3			LTIB4			LLMAL			LMMAL			LHEE			LMT1			LMT2			LMT5			RTHI			RTHI2			RTHI3			RTHI4			RLFC			RMFC			RTIB1			RTIB2			RTIB3			RTIB4			RLMAL			RMMAL			RHEE			RMT1			RMT2			RMT5			LMFC			
		X1	Y1	Z1	X2	Y2	Z2	X3	Y3	Z3	X4	Y4	Z4	X5	Y5	Z5	X6	Y6	Z6	X7	Y7	Z7	X8	Y8	Z8	X9	Y9	Z9	X10	Y10	Z10	X11	Y11	Z11	X12	Y12	Z12	X13	Y13	Z13	X14	Y14	Z14	X15	Y15	Z15	X16	Y16	Z16	X17	Y17	Z17	X18	Y18	Z18	X19	Y19	Z19	X20	Y20	Z20	X21	Y21	Z21	X22	Y22	Z22	X23	Y23	Z23	X24	Y24	Z24	X25	Y25	Z25	X26	Y26	Z26	X27	Y27	Z27	X28	Y28	Z28	X29	Y29	Z29	X30	Y30	Z30	X31	Y31	Z31	X32	Y32	Z32	X33	Y33	Z33	X34	Y34	Z34	X35	Y35	Z35	X36	Y36	Z36	X37	Y37	Z37	X38	Y38	Z38	X39	Y39	Z39	X40	Y40	Z40	X41	Y41	Z41	X42	Y42	Z42	X43	Y43	Z43	X44	Y44	Z44	X45	Y45	Z45	X46	Y46	Z46	X47	Y47	Z47	X48	Y48	Z48	X49	Y49	Z49	X50	Y50	Z50	X51	Y51	Z51	X52	Y52	Z52	X53	Y53	Z53	X54	Y54	Z54	X55	Y55	Z55	X56	Y56	Z56	X57	Y57	Z57	X58	Y58	Z58	X59	Y59	Z59	X60	Y60	Z60	X61	Y61	Z61	

159	0.79	-162.8958435058594	1679.47265625	-742.5780639648439	-297.8050842285157	1655.637451171875	-771.2005615234377	-325.5070495605469	1636.436157226563	-638.6890258789064	-359.2276611328126	1536.625	-706.8045043945314	-417.5625610351564	1202.194946289063	-728.4338989257814	-238.5935211181641	1447.3671875	-704.1517333984376	-260.5168762207032	1497.78076171875	-849.6966552734377	-172.9886169433594	1424.425415039063	-939.7764892578127	-133.4439239501953	1445.242431640625	-916.1277465820315	-109.5920639038086	1398.193237304688	-946.9060668945315	-5.450929641723634	1375.2705078125	-946.539733886719	-10.2494535446167	1320.47021484375	-901.8828125000002	254.3915100097657	1397.304809570313	-838.2470703125002	257.1463928222657	1391.80419921875	-913.0393676757815	335.0088500976563	1409.076049804688	-832.5505371093752	-262.8958435058594	1481.087646484375	-556.5314331054689	-173.9494323730469	1375.666381835938	-462.4146728515626	-134.6311798095703	1399.846557617188	-475.6673583984376	-110.6090621948242	1348.521850585938	-456.2397460937501	-18.62762260437012	1333.5478515625	-454.8404235839845	-18.4688949584961	1284.7958984375	-521.2333374023439	238.9754791259766	1381.863159179688	-553.5989990234376	243.7536773681641	1377.1083984375	-477.7267456054689	328.5638122558594	1409.228759765625	-546.1021118164064	-255.8710479736329	1036.179931640625	-857.2266235351565	-263.8328552246094	1022.07177734375	-605.3011474609376	-440.1539001464845	1101.78955078125	-731.8515014648439	-452.3741760253907	1074.70361328125	-761.7038574218751	-458.6903381347657	1070.9365234375	-705.6262817382814	-267.5255126953126	711.6360473632814	-906.6724853515627	-227.4427795410157	638.9208374023439	-887.920837402344	-187.9880676269532	645.7322998046876	-859.4622192382815	-254.002182006836	584.8614501953126	-882.084899902344	-265.3640136718751	538.7909545898439	-880.383239746094	-414.5157470703126	419.8524475097657	-835.0137329101565	-472.1719055175782	462.1581420898439	-883.6489257812502	-465.7618408203126	422.9661865234376	-865.9794921875002	-538.7918090820314	396.1000366210939	-831.6477661132815	-671.2277832031251	417.3285217285157	-856.462829589844	-641.2813720703126	410.8973999023439	-771.3502197265627	-714.2383422851564	465.5803527832032	-809.4993896484377	-663.1733398437501	247.2573547363282	-779.0803222656252	-664.4836425781251	245.6709136962891	-817.8585205078127	-698.8874511718751	274.7288818359376	-869.2285766601565	-353.6871948242188	792.1920166015627	-556.1102905273439	-315.3144836425782	738.3593139648439	-557.6239624023439	-281.6905517578126	741.6512451171876	-558.5037841796876	-335.9027404785157	661.9884643554689	-584.6005249023439	-312.3090209960938	513.8641357421876	-608.6768188476564	-299.6969604492188	511.469207763672	-738.6986694335939	-275.4161376953126	355.4476318359376	-706.8989257812501	-307.8126220703126	270.5958251953126	-647.8236083984376	-281.6394653320313	270.6279296875001	-688.6110229492189	-302.2084655761719	230.2583923339844	-725.5972900390626	-361.1458435058594	98.62154388427737	-685.2740478515626	-352.1893310546876	130.0206298828125	-770.2258911132815	-430.9929504394532	81.63445281982423	-743.5930175781251	-206.8367156982422	56.06709289550783	-759.7135620117189	-206.1756286621094	51.37119293212892	-719.0762329101564	-248.4944000244141	33.87786865234376	-669.7493896484376	nan	nan	nan	
160	0.795	-162.6278686523438	1679.458374023438	-742.4602050781251	-297.5874633789063	1655.59130859375	-771.1641235351565	-325.2859497070313	1636.335083007813	-638.7371826171876	-358.9931640625001	1536.572143554688	-706.8265380859376	-417.5234375000001	1202.217895507813	-728.4577636718751	-238.4420928955079	1447.339965820313	-704.1742553710939	-260.3581848144532	1497.777099609375	-849.7066040039065	-172.7555236816407	1424.3671875	-939.792907714844	-133.2744750976563	1445.236083984375	-916.1024169921877	-109.4358825683594	1398.1318359375	-946.9289550781252	-5.348236083984376	1375.199584960938	-946.5655517578127	-10.11578941345215	1320.446899414063	-901.9425048828127	254.5554504394532	1397.168823242188	-838.2524414062502	257.2993774414063	1391.6630859375	-913.0200195312502	335.1450805664063	1408.94775390625	-832.5101318359377	-262.6701660156251	1481.01708984375	-556.5529174804689	-173.7609405517578	1375.62451171875	-462.425262451172	-134.4831237792969	1399.775268554688	-475.6780700683595	-110.4450988769532	1348.456787109375	-456.2537536621095	-18.44035339355469	1333.457763671875	-454.8275756835939	-18.30296516418457	1284.714233398438	-521.2456665039064	239.2121582031251	1381.806884765625	-553.6169433593751	243.9474792480469	1377.017333984375	-477.7399291992189	328.6799011230469	1409.138061523438	-546.1523437500001	-255.9439849853516	1036.151611328125	-857.3257446289065	-263.8407287597657	1022.01513671875	-605.3933715820314	-440.1707153320314	1101.806884765625	-731.9137573242189	-452.2999572753907	1074.684326171875	-761.7690429687501	-458.6638793945314	1070.936279296875	-705.6533203125001	-267.5825500488282	711.6173095703126	-906.8662109375002	-227.5815887451172	638.8928833007814	-888.0177001953127	-188.0639038085938	645.6667480468751	-859.5687255859377	-254.0518035888672	584.8066406250001	-882.2126464843752	-265.4044494628907	538.7844848632814	-880.5465087890627	-414.614715576172	419.8479614257814	-835.001403808594	-472.220672607422	462.1517028808595	-883.798278808594	-465.8555908203126	422.9853515625001	-866.0822753906252	-538.9119873046876	396.1360473632814	-831.7917480468752	-671.2993774414064	417.4205932617189	-856.5908203125002	-641.3930664062501	410.8733215332032	-771.5459594726565	-714.3389892578126	465.6028137207032	-809.6792602539065	-663.2847900390626	247.2286987304688	-779.2362060546877	-664.6594238281251	245.6676483154297	-818.0042114257815	-698.9329223632814	274.6613769531251	-869.414001464844	-353.6234741210938	792.1042480468752	-556.1906738281251	-315.1507568359376	738.2942504882814	-557.7520751953126	-281.5674743652344	741.6455078125001	-558.6187744140626	-335.6871337890626	661.9095458984376	-584.7326660156251	-312.0129699707032	513.8328857421876	-608.7976074218751	-299.4946289062501	511.5057373046876	-738.8547973632814	-275.2770080566407	355.4588012695313	-707.0002441406251	-307.6623840332032	270.5807800292969	-647.9794921875001	-281.5079956054688	270.5552062988282	-688.7868041992189	-302.1358032226563	230.2154693603516	-725.6520385742189	-361.1331481933594	98.64093780517581	-685.3748168945314	-352.2574462890626	130.0229034423828	-770.2937011718752	-430.9462280273439	81.68289184570314	-743.6508789062501	-206.8370056152344	56.02278518676759	-759.7564697265626	-206.2254180908204	51.35344314575197	-719.2133178710939	-248.4615631103516	33.89695358276368	-669.7570800781251	nan	nan	nan	
161	0.8	-162.1893615722657	1679.358154296875	-742.3693847656251	-297.3436889648438	1655.501586914063	-771.1119384765627	-325.0871276855469	1636.210693359375	-638.7842407226564	-358.7826843261719	1536.539306640625	-706.8600463867189	-417.4694213867189	1202.22607421875	-728.5794677734376	-238.1984863281251	1447.2314453125	-704.2011108398439	-260.1437377929688	1497.71044921875	-849.7156372070315	-172.5864562988282	1424.312255859375	-939.8191528320315	-133.0360870361328	1445.154907226563	-916.124450683594	-109.0989761352539	1398.1826171875	-946.8823242187502	-5.169886112213136	1375.129760742188	-946.539245605469	-9.972745895385744	1320.322265625	-901.8538818359377	254.7998046875001	1397.013305664063	-838.1946411132815	257.4561157226563	1391.551025390625	-912.9236450195315	335.2865295410157	1408.79296875	-832.4155273437502	-262.4483337402344	1480.942749023438	-556.5578613281251	-173.5811309814453	1375.521118164063	-462.4295959472657	-134.2861480712891	1399.66455078125	-475.7024841308595	-110.3055648803711	1348.35400390625	-456.2935180664064	-18.25230598449707	1333.3271484375	-454.8414306640626	-18.1407527923584	1284.622802734375	-521.2646484375001	239.3657684326172	1381.653076171875	-553.6005859375001	244.0880279541016	1376.894775390625	-477.7703552246095	328.8728027343751	1409.054321289063	-546.1757202148439	-256.0032348632813	1036.124267578125	-857.4295043945315	-263.8606262207032	1021.852905273438	-605.4959106445314	-440.1642150878907	1101.801879882813	-731.9710693359376	-452.3336791992189	1074.702026367188	-761.8525390625001	-458.6546936035157	1070.975463867188	-705.7489624023439	-267.5786132812501	711.5720214843751	-907.0437622070315	-227.6676635742188	638.8933105468751	-888.1946411132815	-188.1324157714844	645.6414184570314	-859.6711425781252	-254.1785430908204	584.7833251953126	-882.325866699219	-265.4992980957032	538.7586059570314	-880.6799926757815	-414.7162475585939	419.8721618652345	-835.1677246093752	-472.3305053710939	462.1592102050782	-883.9288330078127	-465.988494873047	423.007537841797	-866.2786865234377	-539.0337524414064	396.102508544922	-832.0275878906252	-671.4584350585939	417.3711853027345	-856.778503417969	-641.5010375976564	410.8621215820314	-771.781677246094	-714.4494628906251	465.6214294433595	-809.8536376953127	-663.3588867187501	247.2235107421876	-779.432312011719	-664.8078613281251	245.6796112060547	-818.2137451171877	-699.0568847656251	274.6733703613282	-869.5047607421877	-353.5206909179688	792.0391235351565	-556.2653808593751	-315.0015258789063	738.2469482421876	-557.9181518554689	-281.4622497558594	741.6478881835939	-558.7088012695314	-335.4981689453126	661.8604736328126	-584.8577270507814	-311.7500915527344	513.7670288085939	-608.8521728515626	-299.1451110839844	511.377166748047	-738.9984741210939	-276.0167846679688	355.4395751953126	-706.8695678710939	-307.5036926269532	270.5704040527344	-648.0628662109376	-281.4033203125001	270.5145263671876	-688.8963623046876	-302.0589904785157	230.196517944336	-725.7504882812501	-361.1127624511719	98.69780731201175	-685.3632812500001	-352.2151794433594	130.0032348632813	-770.318298339844	-430.9342651367189	81.68747711181642	-743.6504516601564	-206.8056640625001	55.99074172973634	-759.7630615234376	-206.2306213378907	51.32802200317384	-719.2442016601564	-248.4551391601563	33.90370559692384	-669.7756958007814	nan	nan	nan	
162	0.805	-161.9568023681641	1679.273681640625	-742.2030029296876	-297.0093688964844	1655.53271484375	-771.1190185546877	-324.8454284667969	1636.129150390625	-638.7795410156251	-358.5014038085938	1536.526245117188	-706.9235229492189	-417.4622497558595	1202.242553710938	-728.6112670898439	-237.9835968017579	1447.159912109375	-704.2220458984376	-259.9239807128907	1497.6708984375	-849.7135009765627	-172.4634246826172	1424.275268554688	-939.8345947265627	-132.8542633056641	1445.096313476563	-916.1348266601565	-108.9290771484375	1398.146850585938	-946.8774414062502	-5.058290481567384	1375.057250976563	-946.6021118164065	-9.828795433044435	1320.203857421875	-901.9505615234377	254.963363647461	1396.91064453125	-838.1901855468752	257.6654663085938	1391.397216796875	-912.9304199218752	335.3478698730469	1408.630615234375	-832.3870849609377	-262.2262878417969	1480.839965820313	-556.5838012695314	-173.364242553711	1375.490844726563	-462.4267578125001	-134.1117858886719	1399.589111328125	-475.7081298828126	-110.1178817749024	1348.263061523438	-456.3085937500001	-18.0639705657959	1333.27880859375	-454.8890686035157	-17.95913887023926	1284.544555664063	-521.2561035156251	239.5306701660157	1381.503662109375	-553.6008300781251	244.2597198486329	1376.794189453125	-477.880584716797	329.0323181152344	1408.929077148438	-546.2030029296876	-255.9743194580079	1036.102172851563	-857.5062255859377	-263.8601379394532	1021.795959472656	-605.5457763671876	-440.1792907714845	1101.837158203125	-731.9997558593751	-452.2898559570314	1074.699829101563	-761.9197387695314	-458.7095336914064	1070.993530273438	-705.8229980468751	-267.6652832031251	711.5261840820314	-907.1938476562502	-227.754623413086	638.8512573242189	-888.3239746093752	-188.2258758544922	645.6243286132814	-859.7886962890627	-254.2238311767579	584.7471313476564	-882.472595214844	-265.6124572753907	538.6746215820314	-880.8096313476565	-414.7970275878907	419.8278808593751	-835.3394165039065	-472.3694458007814	462.1313781738282	-884.009704589844	-466.0971679687501	422.9906616210939	-866.425720214844	-539.1295166015626	396.1170349121095	-832.1160888671877	-671.7064819335939	417.356903076172	-857.2520751953127	-641.6140747070314	410.8677368164064	-771.9287719726565	-714.5463867187501	465.6022338867189	-810.001159667969	-663.5160522460939	247.1867065429688	-779.693054199219	-664.9675292968751	245.6808471679688	-818.4265747070315	-699.1218872070314	274.6744689941407	-869.6816406250002	-353.4113769531251	791.9539184570315	-556.3038330078126	-314.8450622558594	738.1861572265626	-558.0389404296876	-281.2742919921876	741.6592407226564	-558.7885742187501	-335.3152770996094	661.8122558593751	-584.9826660156251	-311.4896240234376	513.7416992187501	-608.9327392578126	-298.8540649414063	511.3817443847657	-739.0312500000001	-275.9255676269532	355.3581542968751	-707.0503540039064	-307.3583984375001	270.5406799316407	-648.1307373046876	-281.2214965820313	270.4627075195313	-689.0177001953126	-301.9846191406251	230.1742706298829	-725.8096313476564	-361.0819396972657	98.69947814941409	-685.4271240234376	-352.2376098632813	129.9997711181641	-770.3658447265627	-430.9353637695314	81.6873245239258	-743.6520385742189	-206.8443908691407	55.98435592651369	-759.7362670898439	-206.2262115478516	51.3357391357422	-719.2537841796876	-248.4613952636719	33.88631820678712	-669.7699584960939	nan	nan	nan	
